<?xml version="1.0" encoding="utf-8"?>
<!-- Generator: Adobe Illustrator 18.0.0, SVG Export Plug-In . SVG Version: 6.00 Build 0)  -->
<!DOCTYPE svg PUBLIC "-//W3C//DTD SVG 1.1//EN" "http://www.w3.org/Graphics/SVG/1.1/DTD/svg11.dtd">
<svg version="1.1" id="Ebene_1" xmlns="http://www.w3.org/2000/svg" xmlns:xlink="http://www.w3.org/1999/xlink" x="0px" y="0px"
	 viewBox="0 0 978.2 220.4" enable-background="new 0 0 978.2 220.4" xml:space="preserve">
<rect x="218.9" y="0" fill="#425C94" width="759.4" height="220.4"/>
<g>
	<path fill="#FCFCFC" d="M333.1,149.3h-45l-8.6,25.7h-27.3l46.4-124.7h23.8L369.1,175h-27.3L333.1,149.3z M295,128.5h31.2
		l-15.7-46.7L295,128.5z"/>
	<path fill="#FCFCFC" d="M368.2,128c0-14.4,3.2-25.9,9.7-34.5c6.5-8.6,15.3-12.8,26.6-12.8c9,0,16.5,3.4,22.4,10.1V43.5h24.8V175
		h-22.4l-1.2-9.8c-6.2,7.7-14.1,11.6-23.8,11.6c-10.9,0-19.7-4.3-26.2-12.9C371.5,155.3,368.2,143.3,368.2,128z M393,129.8
		c0,8.7,1.5,15.4,4.5,20c3,4.6,7.4,7,13.2,7c7.7,0,13-3.2,16.2-9.7v-36.7c-3.1-6.5-8.4-9.7-16-9.7C399,100.6,393,110.3,393,129.8z"
		/>
	<path fill="#FCFCFC" d="M465.5,175V50.3h43.7c15.1,0,26.6,2.9,34.4,8.7c7.8,5.8,11.7,14.3,11.7,25.5c0,6.1-1.6,11.5-4.7,16.1
		c-3.1,4.7-7.5,8.1-13.1,10.2c6.4,1.6,11.4,4.8,15.1,9.7c3.7,4.9,5.5,10.8,5.5,17.8c0,12-3.8,21.1-11.5,27.2
		c-7.7,6.2-18.6,9.3-32.7,9.4H465.5z M491.2,102.6h19c13-0.2,19.4-5.4,19.4-15.5c0-5.7-1.6-9.7-4.9-12.2c-3.3-2.5-8.5-3.7-15.5-3.7
		h-18V102.6z M491.2,120.7v33.7h22c6.1,0,10.8-1.4,14.2-4.3c3.4-2.9,5.1-6.9,5.1-11.9c0-11.4-5.9-17.2-17.7-17.4H491.2z"/>
	<path fill="#FCFCFC" d="M595,175h-24.8V43.5H595V175z"/>
	<path fill="#FCFCFC" d="M604.5,127.8c0-9.2,1.8-17.4,5.3-24.6c3.5-7.2,8.6-12.8,15.3-16.7c6.7-3.9,14.4-5.9,23.2-5.9
		c12.5,0,22.7,3.8,30.6,11.5c7.9,7.7,12.3,18,13.2,31.2l0.2,6.3c0,14.2-4,25.6-11.9,34.2c-7.9,8.6-18.6,12.9-31.9,12.9
		c-13.4,0-24-4.3-32-12.8c-8-8.6-11.9-20.2-11.9-34.9V127.8z M629.2,129.6c0,8.8,1.7,15.5,5,20.2c3.3,4.7,8,7,14.2,7
		c6,0,10.7-2.3,14-6.9c3.4-4.6,5.1-12,5.1-22.1c0-8.6-1.7-15.3-5.1-20.1c-3.4-4.7-8.1-7.1-14.2-7.1c-6.1,0-10.7,2.4-14,7.1
		C630.9,112.4,629.2,119.7,629.2,129.6z"/>
	<path fill="#FCFCFC" d="M739,156.8c4.6,0,8.3-1.3,11.1-3.8c2.9-2.5,4.3-5.9,4.5-10h23.2c-0.1,6.3-1.8,12-5.1,17.3
		c-3.4,5.2-8,9.3-13.8,12.2c-5.9,2.9-12.3,4.3-19.4,4.3c-13.2,0-23.7-4.2-31.3-12.6c-7.7-8.4-11.5-20.1-11.5-34.9v-1.6
		c0-14.3,3.8-25.7,11.4-34.2c7.6-8.5,18-12.8,31.3-12.8c11.6,0,20.9,3.3,27.9,9.9c7,6.6,10.5,15.4,10.7,26.3h-23.2
		c-0.1-4.8-1.6-8.7-4.5-11.8c-2.9-3-6.6-4.5-11.3-4.5c-5.8,0-10.1,2.1-13.1,6.3c-2.9,4.2-4.4,11-4.4,20.5v2.6
		c0,9.6,1.5,16.4,4.4,20.6C728.7,154.7,733.1,156.8,739,156.8z"/>
	<path fill="#FCFCFC" d="M818.6,137.9l-8.9,8.9V175h-24.8V43.5h24.8v72.9l4.8-6.2l23.7-27.8h29.7L834.4,121l36.4,54h-28.4
		L818.6,137.9z"/>
</g>
<g>
	<path fill="#FCFCFC" d="M914.9,163.3h16.3v11.6h-48.2v-19.2c0-3.7,0.7-6.9,2-9.8c1.4-2.8,3.3-5,5.8-6.6c2.5-1.6,5.3-2.3,8.5-2.3
		c4.7,0,8.5,1.7,11.3,5c2.8,3.4,4.2,8,4.2,13.8V163.3z M905.9,163.3v-7.6c0-2.2-0.6-4-1.7-5.1c-1.1-1.2-2.7-1.8-4.8-1.8
		c-2.2,0-4,0.6-5.4,1.8c-1.3,1.2-2,2.9-2.1,5v7.7H905.9z"/>
	<path fill="#FCFCFC" d="M914.2,112.9v6.3h17v11.6h-48.2v-19c0-5.7,1.3-10.2,3.8-13.4s6.1-4.8,10.7-4.8c3.3,0,6.1,0.7,8.3,2
		s4,3.5,5.4,6.4L930.7,92h0.5v12.4L914.2,112.9z M905.3,119.2v-7.3c0-2.2-0.6-3.9-1.7-5c-1.2-1.1-2.8-1.7-4.9-1.7s-3.7,0.6-4.9,1.7
		c-1.2,1.1-1.8,2.8-1.8,5v7.3H905.3z"/>
	<path fill="#FCFCFC" d="M908.1,45.8c4.7,0,8.9,0.9,12.5,2.6c3.6,1.7,6.4,4.2,8.4,7.4c2,3.2,2.9,6.9,2.9,11s-0.9,7.7-2.8,10.9
		s-4.6,5.7-8.1,7.4c-3.5,1.8-7.5,2.7-12.1,2.8h-2.7c-4.7,0-8.9-0.9-12.5-2.6s-6.4-4.2-8.4-7.4c-2-3.2-2.9-6.9-2.9-11
		c0-4.1,1-7.7,2.9-10.9c1.9-3.2,4.7-5.7,8.3-7.5c3.6-1.8,7.7-2.7,12.3-2.7H908.1z M906.1,57.7c-4.8,0-8.4,0.8-10.9,2.4
		c-2.5,1.6-3.7,3.9-3.7,6.9c0,5.8,4.4,8.9,13.1,9.2l3.5,0c4.7,0,8.3-0.8,10.9-2.3c2.5-1.6,3.8-3.9,3.8-7c0-2.9-1.2-5.2-3.7-6.8
		c-2.5-1.6-6.1-2.4-10.8-2.4H906.1z"/>
</g>
<rect x="-0.5" y="0" fill="#FF6633" width="219.3" height="220.4"/>
<g id="rMBkHU.tif">
	<g>
		<g>
			<path fill="#FCFCFC" d="M33.2,158.5c1-0.2,1.7-0.3,2.3-0.4c9.6-1.9,17.8-6.6,25.2-12.7c7.3-6.1,13.5-13.1,18.8-21
				c0.2-0.4,0.5-0.7,0.8-1.2c13.8,8.1,27.6,16.2,41.5,24.3c-0.4,0.8-0.7,1.6-1.1,2.4c-7.1,14-17,25.8-29,35.8
				c-0.8,0.6-1.4,0.7-2.3,0.4c-3.3-1.2-6.6-2.3-10.1-3.5c5.6-7.4,11-14.8,16.5-22.1c0-0.1-0.1-0.1-0.1-0.2c-0.3,0.2-0.7,0.5-1,0.7
				c-6.4,5.2-12.8,10.4-19.2,15.6c-0.9,0.8-1.7,1-2.8,0.5c-3-1.1-6-2-9.2-3.1c4.2-5.9,8.3-11.7,12.4-17.4c0-0.1-0.1-0.1-0.1-0.2
				c-0.4,0.2-0.8,0.5-1.2,0.7c-5.8,3.9-11.7,7.7-17.4,11.7c-0.8,0.6-1.4,0.6-2.3,0.2c-6.7-3.3-13.4-6.4-20.1-9.7
				C34.3,159.2,33.9,158.9,33.2,158.5z"/>
			<path fill="#FCFCFC" d="M126.5,143.6c-13.7-8.2-26.9-16.2-40.7-24.4c2.7-0.7,5-1.5,7.3-2c5.7-1.3,11.4-1.4,17.1,0.6
				c0.4,0.1,1.2-0.3,1.5-0.7c7.2-9,14.4-18.1,21.6-27.2c14-17.7,28.1-35.4,42.1-53.2c1.4-1.8,3.2-2.8,5.5-2.5
				c4.5,0.5,6.3,5.5,3.3,9.3c-4.2,5.3-8.4,10.6-12.6,15.8c-17.1,21.5-34.2,42.9-51.3,64.4c-0.6,0.8-0.7,1.3-0.1,2.2
				C123.9,131,125.8,136.9,126.5,143.6z"/>
		</g>
	</g>
</g>
</svg>
